<svg width="121" height="121" viewBox="0 0 121 121" fill="none" xmlns="http://www.w3.org/2000/svg">
<line x1="60" y1="2" x2="60" y2="118" stroke="#AE7C54" stroke-width="4" stroke-linecap="round"/>
<line x1="55" y1="41.5" x2="65" y2="41.5" stroke="#AE7C54" stroke-width="3" stroke-linecap="round"/>
<line x1="54" y1="25.5" x2="66" y2="25.5" stroke="#AE7C54" stroke-width="3" stroke-linecap="round"/>
<line x1="54.5" y1="33.5" x2="65.5" y2="33.5" stroke="#AE7C54" stroke-width="3" stroke-linecap="round"/>
<line x1="65" y1="79.5" x2="55" y2="79.5" stroke="#AE7C54" stroke-width="3" stroke-linecap="round"/>
<line x1="66" y1="95.5" x2="54" y2="95.5" stroke="#AE7C54" stroke-width="3" stroke-linecap="round"/>
<line x1="65.5" y1="87.5" x2="54.5" y2="87.5" stroke="#AE7C54" stroke-width="3" stroke-linecap="round"/>
<path d="M70.5 2C70.5 17.0084 49.5 17 49.5 2" stroke="#AE7C54" stroke-width="4" stroke-linecap="round"/>
<path d="M49.5 118.253C49.5 103.245 70.5 103.253 70.5 118.253" stroke="#AE7C54" stroke-width="4" stroke-linecap="round"/>
<line x1="60" y1="2" x2="60" y2="118" stroke="#AE7C54" stroke-width="4" stroke-linecap="round"/>
<line x1="55" y1="41.5" x2="65" y2="41.5" stroke="#AE7C54" stroke-width="3" stroke-linecap="round"/>
<line x1="54" y1="25.5" x2="66" y2="25.5" stroke="#AE7C54" stroke-width="3" stroke-linecap="round"/>
<line x1="54.5" y1="33.5" x2="65.5" y2="33.5" stroke="#AE7C54" stroke-width="3" stroke-linecap="round"/>
<line x1="65" y1="79.5" x2="55" y2="79.5" stroke="#AE7C54" stroke-width="3" stroke-linecap="round"/>
<line x1="66" y1="95.5" x2="54" y2="95.5" stroke="#AE7C54" stroke-width="3" stroke-linecap="round"/>
<line x1="65.5" y1="87.5" x2="54.5" y2="87.5" stroke="#AE7C54" stroke-width="3" stroke-linecap="round"/>
<path d="M70.5 2C70.5 17.0084 49.5 17 49.5 2" stroke="#AE7C54" stroke-width="4" stroke-linecap="round"/>
<path d="M49.5 118.253C49.5 103.245 70.5 103.253 70.5 118.253" stroke="#AE7C54" stroke-width="4" stroke-linecap="round"/>
<line x1="18.9878" y1="18.9878" x2="101.012" y2="101.012" stroke="#AE7C54" stroke-width="4" stroke-linecap="round"/>
<line x1="43.383" y1="50.4541" x2="50.4541" y2="43.383" stroke="#AE7C54" stroke-width="3" stroke-linecap="round"/>
<line x1="31.3622" y1="39.8475" x2="39.8475" y2="31.3622" stroke="#AE7C54" stroke-width="3" stroke-linecap="round"/>
<line x1="37.3726" y1="45.1508" x2="45.1508" y2="37.3726" stroke="#AE7C54" stroke-width="3" stroke-linecap="round"/>
<line x1="77.3241" y1="70.253" x2="70.2531" y2="77.3241" stroke="#AE7C54" stroke-width="3" stroke-linecap="round"/>
<line x1="89.3449" y1="80.8596" x2="80.8597" y2="89.3449" stroke="#AE7C54" stroke-width="3" stroke-linecap="round"/>
<line x1="83.3345" y1="75.5563" x2="75.5564" y2="83.3345" stroke="#AE7C54" stroke-width="3" stroke-linecap="round"/>
<path d="M26.4124 11.5632C37.0249 22.1757 22.1698 37.019 11.5632 26.4124" stroke="#AE7C54" stroke-width="4" stroke-linecap="round"/>
<path d="M93.7666 108.616C83.1541 98.0033 98.0092 83.16 108.616 93.7666" stroke="#AE7C54" stroke-width="4" stroke-linecap="round"/>
<line x1="18.9878" y1="18.9878" x2="101.012" y2="101.012" stroke="#AE7C54" stroke-width="4" stroke-linecap="round"/>
<line x1="43.383" y1="50.4541" x2="50.4541" y2="43.383" stroke="#AE7C54" stroke-width="3" stroke-linecap="round"/>
<line x1="31.3622" y1="39.8475" x2="39.8475" y2="31.3622" stroke="#AE7C54" stroke-width="3" stroke-linecap="round"/>
<line x1="37.3726" y1="45.1508" x2="45.1508" y2="37.3726" stroke="#AE7C54" stroke-width="3" stroke-linecap="round"/>
<line x1="77.3241" y1="70.253" x2="70.2531" y2="77.3241" stroke="#AE7C54" stroke-width="3" stroke-linecap="round"/>
<line x1="89.3449" y1="80.8596" x2="80.8597" y2="89.3449" stroke="#AE7C54" stroke-width="3" stroke-linecap="round"/>
<line x1="83.3345" y1="75.5563" x2="75.5564" y2="83.3345" stroke="#AE7C54" stroke-width="3" stroke-linecap="round"/>
<path d="M26.4124 11.5632C37.0249 22.1757 22.1698 37.019 11.5632 26.4124" stroke="#AE7C54" stroke-width="4" stroke-linecap="round"/>
<path d="M93.7666 108.616C83.1541 98.0033 98.0092 83.16 108.616 93.7666" stroke="#AE7C54" stroke-width="4" stroke-linecap="round"/>
<line x1="101.012" y1="18.9878" x2="18.9878" y2="101.012" stroke="#AE7C54" stroke-width="4" stroke-linecap="round"/>
<line x1="69.546" y1="43.383" x2="76.617" y2="50.4541" stroke="#AE7C54" stroke-width="3" stroke-linecap="round"/>
<line x1="80.1526" y1="31.3622" x2="88.6378" y2="39.8475" stroke="#AE7C54" stroke-width="3" stroke-linecap="round"/>
<line x1="74.8493" y1="37.3726" x2="82.6274" y2="45.1508" stroke="#AE7C54" stroke-width="3" stroke-linecap="round"/>
<line x1="49.747" y1="77.3241" x2="42.6759" y2="70.2531" stroke="#AE7C54" stroke-width="3" stroke-linecap="round"/>
<line x1="39.1404" y1="89.3449" x2="30.6551" y2="80.8596" stroke="#AE7C54" stroke-width="3" stroke-linecap="round"/>
<line x1="44.4437" y1="83.3345" x2="36.6655" y2="75.5564" stroke="#AE7C54" stroke-width="3" stroke-linecap="round"/>
<path d="M108.437 26.4124C97.8243 37.0249 82.981 22.1698 93.5876 11.5632" stroke="#AE7C54" stroke-width="4" stroke-linecap="round"/>
<path d="M11.3842 93.7666C21.9967 83.1541 36.84 98.0092 26.2334 108.616" stroke="#AE7C54" stroke-width="4" stroke-linecap="round"/>
<line x1="101.012" y1="18.9878" x2="18.9878" y2="101.012" stroke="#AE7C54" stroke-width="4" stroke-linecap="round"/>
<line x1="69.546" y1="43.383" x2="76.617" y2="50.4541" stroke="#AE7C54" stroke-width="3" stroke-linecap="round"/>
<line x1="80.1526" y1="31.3622" x2="88.6378" y2="39.8475" stroke="#AE7C54" stroke-width="3" stroke-linecap="round"/>
<line x1="74.8493" y1="37.3726" x2="82.6274" y2="45.1508" stroke="#AE7C54" stroke-width="3" stroke-linecap="round"/>
<line x1="49.747" y1="77.3241" x2="42.6759" y2="70.2531" stroke="#AE7C54" stroke-width="3" stroke-linecap="round"/>
<line x1="39.1404" y1="89.3449" x2="30.6551" y2="80.8596" stroke="#AE7C54" stroke-width="3" stroke-linecap="round"/>
<line x1="44.4437" y1="83.3345" x2="36.6655" y2="75.5564" stroke="#AE7C54" stroke-width="3" stroke-linecap="round"/>
<path d="M108.437 26.4124C97.8243 37.0249 82.981 22.1698 93.5876 11.5632" stroke="#AE7C54" stroke-width="4" stroke-linecap="round"/>
<path d="M11.3842 93.7666C21.9967 83.1541 36.84 98.0092 26.2334 108.616" stroke="#AE7C54" stroke-width="4" stroke-linecap="round"/>
<line x1="2" y1="60" x2="118" y2="60" stroke="#AE7C54" stroke-width="4" stroke-linecap="round"/>
<line x1="41.5" y1="65" x2="41.5" y2="55" stroke="#AE7C54" stroke-width="3" stroke-linecap="round"/>
<line x1="25.5" y1="66" x2="25.5" y2="54" stroke="#AE7C54" stroke-width="3" stroke-linecap="round"/>
<line x1="33.5" y1="65.5" x2="33.5" y2="54.5" stroke="#AE7C54" stroke-width="3" stroke-linecap="round"/>
<line x1="79.5" y1="55" x2="79.5" y2="65" stroke="#AE7C54" stroke-width="3" stroke-linecap="round"/>
<line x1="95.5" y1="54" x2="95.5" y2="66" stroke="#AE7C54" stroke-width="3" stroke-linecap="round"/>
<line x1="87.5" y1="54.5" x2="87.5" y2="65.5" stroke="#AE7C54" stroke-width="3" stroke-linecap="round"/>
<path d="M2.00001 49.5C17.0084 49.5 17 70.5 2.00001 70.5" stroke="#AE7C54" stroke-width="4" stroke-linecap="round"/>
<path d="M118.253 70.5C103.245 70.5 103.253 49.5 118.253 49.5" stroke="#AE7C54" stroke-width="4" stroke-linecap="round"/>
<line x1="2" y1="60" x2="118" y2="60" stroke="#AE7C54" stroke-width="4" stroke-linecap="round"/>
<line x1="41.5" y1="65" x2="41.5" y2="55" stroke="#AE7C54" stroke-width="3" stroke-linecap="round"/>
<line x1="25.5" y1="66" x2="25.5" y2="54" stroke="#AE7C54" stroke-width="3" stroke-linecap="round"/>
<line x1="33.5" y1="65.5" x2="33.5" y2="54.5" stroke="#AE7C54" stroke-width="3" stroke-linecap="round"/>
<line x1="79.5" y1="55" x2="79.5" y2="65" stroke="#AE7C54" stroke-width="3" stroke-linecap="round"/>
<line x1="95.5" y1="54" x2="95.5" y2="66" stroke="#AE7C54" stroke-width="3" stroke-linecap="round"/>
<line x1="87.5" y1="54.5" x2="87.5" y2="65.5" stroke="#AE7C54" stroke-width="3" stroke-linecap="round"/>
<path d="M2.00001 49.5C17.0084 49.5 17 70.5 2.00001 70.5" stroke="#AE7C54" stroke-width="4" stroke-linecap="round"/>
<path d="M118.253 70.5C103.245 70.5 103.253 49.5 118.253 49.5" stroke="#AE7C54" stroke-width="4" stroke-linecap="round"/>
<circle cx="60" cy="60" r="9" stroke="#AE7C54" stroke-width="2"/>
</svg>
