<svg width="610" height="145" viewBox="0 0 610 145" fill="none" xmlns="http://www.w3.org/2000/svg">
<g clip-path="url(#clip0_2_6)">
<rect width="610" height="145" fill=""/>
<line x1="80" y1="15" x2="80" y2="131" stroke="#AE7C54" stroke-width="4" stroke-linecap="round"/>
<line x1="75" y1="54.5" x2="85" y2="54.5" stroke="#AE7C54" stroke-width="3" stroke-linecap="round"/>
<line x1="74" y1="38.5" x2="86" y2="38.5" stroke="#AE7C54" stroke-width="3" stroke-linecap="round"/>
<line x1="74.5" y1="46.5" x2="85.5" y2="46.5" stroke="#AE7C54" stroke-width="3" stroke-linecap="round"/>
<line x1="85" y1="92.5" x2="75" y2="92.5" stroke="#AE7C54" stroke-width="3" stroke-linecap="round"/>
<line x1="86" y1="108.5" x2="74" y2="108.5" stroke="#AE7C54" stroke-width="3" stroke-linecap="round"/>
<line x1="85.5" y1="100.5" x2="74.5" y2="100.5" stroke="#AE7C54" stroke-width="3" stroke-linecap="round"/>
<path d="M90.5 15C90.5 30.0084 69.5 30 69.5 15" stroke="#AE7C54" stroke-width="4" stroke-linecap="round"/>
<path d="M69.5 131.253C69.5 116.245 90.5 116.253 90.5 131.253" stroke="#AE7C54" stroke-width="4" stroke-linecap="round"/>
<line x1="80" y1="15" x2="80" y2="131" stroke="#AE7C54" stroke-width="4" stroke-linecap="round"/>
<line x1="75" y1="54.5" x2="85" y2="54.5" stroke="#AE7C54" stroke-width="3" stroke-linecap="round"/>
<line x1="74" y1="38.5" x2="86" y2="38.5" stroke="#AE7C54" stroke-width="3" stroke-linecap="round"/>
<line x1="74.5" y1="46.5" x2="85.5" y2="46.5" stroke="#AE7C54" stroke-width="3" stroke-linecap="round"/>
<line x1="85" y1="92.5" x2="75" y2="92.5" stroke="#AE7C54" stroke-width="3" stroke-linecap="round"/>
<line x1="86" y1="108.5" x2="74" y2="108.5" stroke="#AE7C54" stroke-width="3" stroke-linecap="round"/>
<line x1="85.5" y1="100.5" x2="74.5" y2="100.5" stroke="#AE7C54" stroke-width="3" stroke-linecap="round"/>
<path d="M90.5 15C90.5 30.0084 69.5 30 69.5 15" stroke="#AE7C54" stroke-width="4" stroke-linecap="round"/>
<path d="M69.5 131.253C69.5 116.245 90.5 116.253 90.5 131.253" stroke="#AE7C54" stroke-width="4" stroke-linecap="round"/>
<line x1="38.9878" y1="31.9878" x2="121.012" y2="114.012" stroke="#AE7C54" stroke-width="4" stroke-linecap="round"/>
<line x1="63.383" y1="63.4541" x2="70.4541" y2="56.383" stroke="#AE7C54" stroke-width="3" stroke-linecap="round"/>
<line x1="51.3622" y1="52.8475" x2="59.8475" y2="44.3622" stroke="#AE7C54" stroke-width="3" stroke-linecap="round"/>
<line x1="57.3726" y1="58.1508" x2="65.1508" y2="50.3726" stroke="#AE7C54" stroke-width="3" stroke-linecap="round"/>
<line x1="97.3241" y1="83.253" x2="90.2531" y2="90.3241" stroke="#AE7C54" stroke-width="3" stroke-linecap="round"/>
<line x1="109.345" y1="93.8596" x2="100.86" y2="102.345" stroke="#AE7C54" stroke-width="3" stroke-linecap="round"/>
<line x1="103.335" y1="88.5563" x2="95.5564" y2="96.3345" stroke="#AE7C54" stroke-width="3" stroke-linecap="round"/>
<path d="M46.4124 24.5632C57.0249 35.1757 42.1698 50.019 31.5632 39.4124" stroke="#AE7C54" stroke-width="4" stroke-linecap="round"/>
<path d="M113.767 121.616C103.154 111.003 118.009 96.16 128.616 106.767" stroke="#AE7C54" stroke-width="4" stroke-linecap="round"/>
<line x1="38.9878" y1="31.9878" x2="121.012" y2="114.012" stroke="#AE7C54" stroke-width="4" stroke-linecap="round"/>
<line x1="63.383" y1="63.4541" x2="70.4541" y2="56.383" stroke="#AE7C54" stroke-width="3" stroke-linecap="round"/>
<line x1="51.3622" y1="52.8475" x2="59.8475" y2="44.3622" stroke="#AE7C54" stroke-width="3" stroke-linecap="round"/>
<line x1="57.3726" y1="58.1508" x2="65.1508" y2="50.3726" stroke="#AE7C54" stroke-width="3" stroke-linecap="round"/>
<line x1="97.3241" y1="83.253" x2="90.2531" y2="90.3241" stroke="#AE7C54" stroke-width="3" stroke-linecap="round"/>
<line x1="109.345" y1="93.8596" x2="100.86" y2="102.345" stroke="#AE7C54" stroke-width="3" stroke-linecap="round"/>
<line x1="103.335" y1="88.5563" x2="95.5564" y2="96.3345" stroke="#AE7C54" stroke-width="3" stroke-linecap="round"/>
<path d="M46.4124 24.5632C57.0249 35.1757 42.1698 50.019 31.5632 39.4124" stroke="#AE7C54" stroke-width="4" stroke-linecap="round"/>
<path d="M113.767 121.616C103.154 111.003 118.009 96.16 128.616 106.767" stroke="#AE7C54" stroke-width="4" stroke-linecap="round"/>
<line x1="121.012" y1="31.9878" x2="38.9878" y2="114.012" stroke="#AE7C54" stroke-width="4" stroke-linecap="round"/>
<line x1="89.546" y1="56.383" x2="96.617" y2="63.4541" stroke="#AE7C54" stroke-width="3" stroke-linecap="round"/>
<line x1="100.153" y1="44.3622" x2="108.638" y2="52.8475" stroke="#AE7C54" stroke-width="3" stroke-linecap="round"/>
<line x1="94.8493" y1="50.3726" x2="102.627" y2="58.1508" stroke="#AE7C54" stroke-width="3" stroke-linecap="round"/>
<line x1="69.747" y1="90.3241" x2="62.6759" y2="83.2531" stroke="#AE7C54" stroke-width="3" stroke-linecap="round"/>
<line x1="59.1404" y1="102.345" x2="50.6551" y2="93.8596" stroke="#AE7C54" stroke-width="3" stroke-linecap="round"/>
<line x1="64.4437" y1="96.3345" x2="56.6655" y2="88.5564" stroke="#AE7C54" stroke-width="3" stroke-linecap="round"/>
<path d="M128.437 39.4124C117.824 50.0249 102.981 35.1698 113.588 24.5632" stroke="#AE7C54" stroke-width="4" stroke-linecap="round"/>
<path d="M31.3842 106.767C41.9967 96.1541 56.84 111.009 46.2334 121.616" stroke="#AE7C54" stroke-width="4" stroke-linecap="round"/>
<line x1="121.012" y1="31.9878" x2="38.9878" y2="114.012" stroke="#AE7C54" stroke-width="4" stroke-linecap="round"/>
<line x1="89.546" y1="56.383" x2="96.617" y2="63.4541" stroke="#AE7C54" stroke-width="3" stroke-linecap="round"/>
<line x1="100.153" y1="44.3622" x2="108.638" y2="52.8475" stroke="#AE7C54" stroke-width="3" stroke-linecap="round"/>
<line x1="94.8493" y1="50.3726" x2="102.627" y2="58.1508" stroke="#AE7C54" stroke-width="3" stroke-linecap="round"/>
<line x1="69.747" y1="90.3241" x2="62.6759" y2="83.2531" stroke="#AE7C54" stroke-width="3" stroke-linecap="round"/>
<line x1="59.1404" y1="102.345" x2="50.6551" y2="93.8596" stroke="#AE7C54" stroke-width="3" stroke-linecap="round"/>
<line x1="64.4437" y1="96.3345" x2="56.6655" y2="88.5564" stroke="#AE7C54" stroke-width="3" stroke-linecap="round"/>
<path d="M128.437 39.4124C117.824 50.0249 102.981 35.1698 113.588 24.5632" stroke="#AE7C54" stroke-width="4" stroke-linecap="round"/>
<path d="M31.3842 106.767C41.9967 96.1541 56.84 111.009 46.2334 121.616" stroke="#AE7C54" stroke-width="4" stroke-linecap="round"/>
<line x1="22" y1="73" x2="138" y2="73" stroke="#AE7C54" stroke-width="4" stroke-linecap="round"/>
<line x1="61.5" y1="78" x2="61.5" y2="68" stroke="#AE7C54" stroke-width="3" stroke-linecap="round"/>
<line x1="45.5" y1="79" x2="45.5" y2="67" stroke="#AE7C54" stroke-width="3" stroke-linecap="round"/>
<line x1="53.5" y1="78.5" x2="53.5" y2="67.5" stroke="#AE7C54" stroke-width="3" stroke-linecap="round"/>
<line x1="99.5" y1="68" x2="99.5" y2="78" stroke="#AE7C54" stroke-width="3" stroke-linecap="round"/>
<line x1="115.5" y1="67" x2="115.5" y2="79" stroke="#AE7C54" stroke-width="3" stroke-linecap="round"/>
<line x1="107.5" y1="67.5" x2="107.5" y2="78.5" stroke="#AE7C54" stroke-width="3" stroke-linecap="round"/>
<path d="M22 62.5C37.0084 62.5 37 83.5 22 83.5" stroke="#AE7C54" stroke-width="4" stroke-linecap="round"/>
<path d="M138.253 83.5C123.245 83.5 123.253 62.5 138.253 62.5" stroke="#AE7C54" stroke-width="4" stroke-linecap="round"/>
<line x1="22" y1="73" x2="138" y2="73" stroke="#AE7C54" stroke-width="4" stroke-linecap="round"/>
<line x1="61.5" y1="78" x2="61.5" y2="68" stroke="#AE7C54" stroke-width="3" stroke-linecap="round"/>
<line x1="45.5" y1="79" x2="45.5" y2="67" stroke="#AE7C54" stroke-width="3" stroke-linecap="round"/>
<line x1="53.5" y1="78.5" x2="53.5" y2="67.5" stroke="#AE7C54" stroke-width="3" stroke-linecap="round"/>
<line x1="99.5" y1="68" x2="99.5" y2="78" stroke="#AE7C54" stroke-width="3" stroke-linecap="round"/>
<line x1="115.5" y1="67" x2="115.5" y2="79" stroke="#AE7C54" stroke-width="3" stroke-linecap="round"/>
<line x1="107.5" y1="67.5" x2="107.5" y2="78.5" stroke="#AE7C54" stroke-width="3" stroke-linecap="round"/>
<path d="M22 62.5C37.0084 62.5 37 83.5 22 83.5" stroke="#AE7C54" stroke-width="4" stroke-linecap="round"/>
<path d="M138.253 83.5C123.245 83.5 123.253 62.5 138.253 62.5" stroke="#AE7C54" stroke-width="4" stroke-linecap="round"/>
<circle cx="80" cy="73" r="9" stroke="#AE7C54" stroke-width="2"/>
<path d="M164.31 83V25.638H187.874C193.493 25.638 197.707 27.0427 200.516 29.852C203.383 32.6613 204.816 36.818 204.816 42.322C204.816 45.6473 204.128 48.6 202.752 51.18C201.376 53.76 199.455 55.7953 196.99 57.286C194.525 58.7767 191.629 59.522 188.304 59.522L190.884 57.802L207.396 83H200.086L183.058 56.684L186.154 59.866H170.502V83H164.31ZM170.502 54.018H185.036C189.795 54.018 193.235 53.072 195.356 51.18C197.535 49.2307 198.624 46.4213 198.624 42.752C198.624 39.312 197.821 36.5887 196.216 34.582C194.611 32.518 191.601 31.486 187.186 31.486H170.502V54.018ZM218.564 83V25.638H254.77V31.486H224.756V51.266H251.158V57.286H224.756V77.152H254.77V83H218.564ZM283.671 83V56.684L262.257 25.638H269.739L287.885 52.47L285.907 51.954L303.709 25.638H311.191L288.831 58.146L289.863 54.19V83H283.671ZM325.437 64.682V56.598L353.301 25.638H361.213L325.437 64.682ZM319.933 83V25.638H326.125V83H319.933ZM335.069 50.664L363.191 83H354.591L330.425 54.878L335.069 50.664ZM380.587 83.688C378.351 83.688 376.287 83.43 374.395 82.914C372.503 82.3407 370.783 81.5953 369.235 80.678V74.228C370.669 75.2027 372.245 76.034 373.965 76.722C375.743 77.3527 377.692 77.668 379.813 77.668C383.712 77.668 386.521 76.722 388.241 74.83C389.961 72.8807 390.821 69.7273 390.821 65.37V25.638H397.013V65.886C397.013 69.5553 396.497 72.5653 395.465 74.916C394.491 77.2093 393.201 79.0153 391.595 80.334C389.99 81.5953 388.213 82.484 386.263 83C384.371 83.4587 382.479 83.688 380.587 83.688ZM406.054 83L428.93 25.638H435.122L457.912 83H451.29L431.424 31.4L432.714 31.228L412.762 83H406.054ZM416.116 65.112L418.782 59.178H446.904L447.334 65.112H416.116ZM476.865 83L454.849 25.638H461.471L481.337 77.754H479.101L498.623 25.81L504.987 25.638L482.971 83H476.865ZM514.021 83V25.638H520.213V83H514.021ZM540.353 64.682V56.598L568.217 25.638H576.129L540.353 64.682ZM534.849 83V25.638H541.041V83H534.849ZM549.985 50.664L578.107 83H569.507L545.341 54.878L549.985 50.664Z" fill="#1E1E1E"/>
<path d="M167.67 113.83V121H164.37V100.99H172.29C174.57 100.99 176.33 101.52 177.57 102.58C178.83 103.64 179.46 105.22 179.46 107.32C179.46 109.42 178.83 111.03 177.57 112.15C176.33 113.27 174.57 113.83 172.29 113.83H167.67ZM167.67 111.01H171.87C172.73 111.01 173.43 110.92 173.97 110.74C174.51 110.54 174.93 110.27 175.23 109.93C175.53 109.57 175.73 109.18 175.83 108.76C175.95 108.34 176.01 107.9 176.01 107.44C176.01 106.98 175.95 106.53 175.83 106.09C175.73 105.65 175.53 105.26 175.23 104.92C174.93 104.56 174.51 104.28 173.97 104.08C173.43 103.88 172.73 103.78 171.87 103.78H167.67V111.01ZM183.413 121V100.99H192.293C194.373 100.99 195.963 101.5 197.063 102.52C198.183 103.52 198.743 105.02 198.743 107.02C198.743 108.06 198.533 109.02 198.113 109.9C197.693 110.78 197.083 111.5 196.283 112.06C195.483 112.62 194.533 112.94 193.433 113.02L193.793 112L199.733 121H195.623L190.073 112.03L191.603 113.44H186.713V121H183.413ZM186.713 110.74H191.363C192.683 110.74 193.663 110.45 194.303 109.87C194.963 109.29 195.293 108.41 195.293 107.23C195.293 106.13 195.033 105.28 194.513 104.68C194.013 104.08 193.143 103.78 191.903 103.78H186.713V110.74ZM203.364 121V100.99H206.694V121H203.364ZM217.151 121L209.561 100.99H213.281L219.671 118.69H218.561L224.861 101.02L228.341 100.99L220.571 121H217.151ZM227.608 121L235.408 100.99H238.918L246.508 121H243.028L236.338 102.61L237.598 102.49L230.908 121H227.608ZM231.448 115.57L232.408 112.87H241.918L242.188 115.57H231.448ZM252.342 121V103.78H245.862V100.99H262.122V103.78H255.642V121H252.342ZM265.122 121V100.99H278.232V103.78H268.452V109.57H276.972V112.39H268.422V118.21H278.232V121H265.122ZM295.965 121V103.78H289.485V100.99H305.745V103.78H299.265V121H295.965ZM316.972 121.33C314.992 121.33 313.302 120.95 311.902 120.19C310.522 119.43 309.472 118.29 308.752 116.77C308.032 115.25 307.672 113.33 307.672 111.01C307.672 107.59 308.462 105.01 310.042 103.27C311.642 101.53 313.952 100.66 316.972 100.66C318.972 100.66 320.662 101.04 322.042 101.8C323.422 102.56 324.472 103.71 325.192 105.25C325.932 106.77 326.302 108.69 326.302 111.01C326.302 114.41 325.502 116.98 323.902 118.72C322.322 120.46 320.012 121.33 316.972 121.33ZM316.972 118.48C318.312 118.48 319.412 118.23 320.272 117.73C321.152 117.21 321.802 116.4 322.222 115.3C322.662 114.2 322.882 112.76 322.882 110.98C322.882 109.22 322.662 107.8 322.222 106.72C321.802 105.62 321.152 104.82 320.272 104.32C319.412 103.8 318.312 103.54 316.972 103.54C315.652 103.54 314.552 103.8 313.672 104.32C312.792 104.84 312.132 105.65 311.692 106.75C311.272 107.83 311.062 109.25 311.062 111.01C311.062 112.77 311.272 114.2 311.692 115.3C312.132 116.4 312.792 117.21 313.672 117.73C314.552 118.23 315.652 118.48 316.972 118.48ZM338.62 121.42C335.9 121.42 333.82 120.73 332.38 119.35C330.94 117.95 330.22 115.88 330.22 113.14V100.99H333.61V113.11C333.61 114.99 334.02 116.39 334.84 117.31C335.66 118.21 336.89 118.66 338.53 118.66C340.13 118.66 341.35 118.21 342.19 117.31C343.05 116.39 343.48 114.99 343.48 113.11V100.99H346.66V113.14C346.66 114.96 346.33 116.49 345.67 117.73C345.03 118.97 344.11 119.9 342.91 120.52C341.71 121.12 340.28 121.42 338.62 121.42ZM351.401 121V100.99H360.281C362.361 100.99 363.951 101.5 365.051 102.52C366.171 103.52 366.731 105.02 366.731 107.02C366.731 108.06 366.521 109.02 366.101 109.9C365.681 110.78 365.071 111.5 364.271 112.06C363.471 112.62 362.521 112.94 361.421 113.02L361.781 112L367.721 121H363.611L358.061 112.03L359.591 113.44H354.701V121H351.401ZM354.701 110.74H359.351C360.671 110.74 361.651 110.45 362.291 109.87C362.951 109.29 363.281 108.41 363.281 107.23C363.281 106.13 363.021 105.28 362.501 104.68C362.001 104.08 361.131 103.78 359.891 103.78H354.701V110.74ZM377.472 121.33C376.472 121.33 375.592 121.27 374.832 121.15C374.072 121.05 373.382 120.88 372.762 120.64C372.142 120.4 371.502 120.11 370.842 119.77V116.47C371.622 117.09 372.562 117.6 373.662 118C374.782 118.4 375.982 118.6 377.262 118.6C378.502 118.6 379.422 118.35 380.022 117.85C380.642 117.33 380.952 116.62 380.952 115.72C380.952 115.02 380.722 114.46 380.262 114.04C379.822 113.6 379.232 113.23 378.492 112.93C377.752 112.63 376.962 112.33 376.122 112.03C375.482 111.79 374.852 111.54 374.232 111.28C373.612 111 373.052 110.66 372.552 110.26C372.052 109.84 371.652 109.31 371.352 108.67C371.052 108.03 370.902 107.24 370.902 106.3C370.902 105.64 371.032 104.97 371.292 104.29C371.552 103.61 371.942 103 372.462 102.46C373.002 101.9 373.702 101.46 374.562 101.14C375.442 100.8 376.492 100.63 377.712 100.63C378.512 100.63 379.202 100.68 379.782 100.78C380.382 100.88 380.942 101.04 381.462 101.26C382.002 101.46 382.582 101.71 383.202 102.01V105.25C382.702 104.93 382.192 104.63 381.672 104.35C381.172 104.07 380.622 103.84 380.022 103.66C379.422 103.48 378.752 103.38 378.012 103.36C377.172 103.34 376.482 103.44 375.942 103.66C375.402 103.88 374.992 104.19 374.712 104.59C374.432 104.99 374.292 105.45 374.292 105.97C374.292 106.67 374.462 107.23 374.802 107.65C375.162 108.05 375.662 108.39 376.302 108.67C376.942 108.93 377.682 109.19 378.522 109.45C379.262 109.69 379.982 109.96 380.682 110.26C381.382 110.56 382.002 110.93 382.542 111.37C383.082 111.79 383.512 112.32 383.832 112.96C384.172 113.6 384.342 114.39 384.342 115.33C384.342 116.37 384.102 117.35 383.622 118.27C383.162 119.17 382.422 119.91 381.402 120.49C380.402 121.05 379.092 121.33 377.472 121.33ZM409.231 121L399.811 109.66C399.371 109.12 398.931 108.48 398.491 107.74C398.071 107 397.861 106.27 397.861 105.55C397.861 104.67 398.101 103.87 398.581 103.15C399.061 102.41 399.701 101.82 400.501 101.38C401.321 100.94 402.231 100.72 403.231 100.72C404.231 100.72 405.111 100.92 405.871 101.32C406.651 101.72 407.261 102.27 407.701 102.97C408.161 103.67 408.391 104.45 408.391 105.31C408.391 106.13 408.201 106.84 407.821 107.44C407.461 108.02 406.951 108.56 406.291 109.06C405.631 109.54 404.851 110.05 403.951 110.59L402.631 108.76C403.431 108.32 404.031 107.92 404.431 107.56C404.831 107.2 405.091 106.86 405.211 106.54C405.351 106.2 405.421 105.87 405.421 105.55C405.421 104.95 405.211 104.46 404.791 104.08C404.391 103.7 403.881 103.51 403.261 103.51C402.641 103.51 402.111 103.72 401.671 104.14C401.251 104.54 401.041 105.03 401.041 105.61C401.041 105.87 401.141 106.18 401.341 106.54C401.561 106.9 401.801 107.27 402.061 107.65C402.341 108.01 402.601 108.33 402.841 108.61L413.191 121H409.231ZM402.211 121.3C401.131 121.3 400.191 121.13 399.391 120.79C398.591 120.45 397.931 120 397.411 119.44C396.911 118.86 396.531 118.24 396.271 117.58C396.011 116.92 395.881 116.28 395.881 115.66C395.881 115 396.011 114.32 396.271 113.62C396.551 112.9 397.021 112.19 397.681 111.49C398.361 110.79 399.291 110.14 400.471 109.54L402.451 111.31C401.591 111.79 400.921 112.29 400.441 112.81C399.981 113.31 399.661 113.79 399.481 114.25C399.301 114.69 399.211 115.09 399.211 115.45C399.211 115.69 399.251 115.99 399.331 116.35C399.431 116.69 399.601 117.04 399.841 117.4C400.081 117.74 400.431 118.03 400.891 118.27C401.351 118.49 401.941 118.6 402.661 118.6C403.461 118.6 404.221 118.39 404.941 117.97C405.661 117.53 406.241 117.07 406.681 116.59L408.361 118.6C407.921 119.08 407.401 119.53 406.801 119.95C406.221 120.35 405.541 120.68 404.761 120.94C404.001 121.18 403.151 121.3 402.211 121.3ZM407.971 115.18C408.211 114.8 408.411 114.41 408.571 114.01C408.731 113.59 408.861 113.21 408.961 112.87C409.061 112.53 409.131 112.28 409.171 112.12H411.721C411.601 112.8 411.361 113.59 411.001 114.49C410.661 115.37 410.231 116.22 409.711 117.04L407.971 115.18ZM429.852 121V103.78H423.372V100.99H439.632V103.78H433.152V121H429.852ZM442.632 121V100.99H451.512C453.592 100.99 455.182 101.5 456.282 102.52C457.402 103.52 457.962 105.02 457.962 107.02C457.962 108.06 457.752 109.02 457.332 109.9C456.912 110.78 456.302 111.5 455.502 112.06C454.702 112.62 453.752 112.94 452.652 113.02L453.012 112L458.952 121H454.842L449.292 112.03L450.822 113.44H445.932V121H442.632ZM445.932 110.74H450.582C451.902 110.74 452.882 110.45 453.522 109.87C454.182 109.29 454.512 108.41 454.512 107.23C454.512 106.13 454.252 105.28 453.732 104.68C453.232 104.08 452.362 103.78 451.122 103.78H445.932V110.74ZM460.723 121L468.523 100.99H472.033L479.623 121H476.143L469.453 102.61L470.713 102.49L464.023 121H460.723ZM464.563 115.57L465.523 112.87H475.033L475.303 115.57H464.563ZM482.505 121V100.99H485.685L497.235 116.98L496.305 118.78V100.99H499.455V121H496.485L484.605 104.68L485.655 103.21V121H482.505ZM510.304 121.33C509.304 121.33 508.424 121.27 507.664 121.15C506.904 121.05 506.214 120.88 505.594 120.64C504.974 120.4 504.334 120.11 503.674 119.77V116.47C504.454 117.09 505.394 117.6 506.494 118C507.614 118.4 508.814 118.6 510.094 118.6C511.334 118.6 512.254 118.35 512.854 117.85C513.474 117.33 513.784 116.62 513.784 115.72C513.784 115.02 513.554 114.46 513.094 114.04C512.654 113.6 512.064 113.23 511.324 112.93C510.584 112.63 509.794 112.33 508.954 112.03C508.314 111.79 507.684 111.54 507.064 111.28C506.444 111 505.884 110.66 505.384 110.26C504.884 109.84 504.484 109.31 504.184 108.67C503.884 108.03 503.734 107.24 503.734 106.3C503.734 105.64 503.864 104.97 504.124 104.29C504.384 103.61 504.774 103 505.294 102.46C505.834 101.9 506.534 101.46 507.394 101.14C508.274 100.8 509.324 100.63 510.544 100.63C511.344 100.63 512.034 100.68 512.614 100.78C513.214 100.88 513.774 101.04 514.294 101.26C514.834 101.46 515.414 101.71 516.034 102.01V105.25C515.534 104.93 515.024 104.63 514.504 104.35C514.004 104.07 513.454 103.84 512.854 103.66C512.254 103.48 511.584 103.38 510.844 103.36C510.004 103.34 509.314 103.44 508.774 103.66C508.234 103.88 507.824 104.19 507.544 104.59C507.264 104.99 507.124 105.45 507.124 105.97C507.124 106.67 507.294 107.23 507.634 107.65C507.994 108.05 508.494 108.39 509.134 108.67C509.774 108.93 510.514 109.19 511.354 109.45C512.094 109.69 512.814 109.96 513.514 110.26C514.214 110.56 514.834 110.93 515.374 111.37C515.914 111.79 516.344 112.32 516.664 112.96C517.004 113.6 517.174 114.39 517.174 115.33C517.174 116.37 516.934 117.35 516.454 118.27C515.994 119.17 515.254 119.91 514.234 120.49C513.234 121.05 511.924 121.33 510.304 121.33ZM521.118 121V100.99H533.958V103.78H524.418V109.75H532.758V112.57H524.418V121H521.118ZM537.671 121V100.99H550.781V103.78H541.001V109.57H549.521V112.39H540.971V118.21H550.781V121H537.671ZM555.249 121V100.99H564.129C566.209 100.99 567.799 101.5 568.899 102.52C570.019 103.52 570.579 105.02 570.579 107.02C570.579 108.06 570.369 109.02 569.949 109.9C569.529 110.78 568.919 111.5 568.119 112.06C567.319 112.62 566.369 112.94 565.269 113.02L565.629 112L571.569 121H567.459L561.909 112.03L563.439 113.44H558.549V121H555.249ZM558.549 110.74H563.199C564.519 110.74 565.499 110.45 566.139 109.87C566.799 109.29 567.129 108.41 567.129 107.23C567.129 106.13 566.869 105.28 566.349 104.68C565.849 104.08 564.979 103.78 563.739 103.78H558.549V110.74ZM581.32 121.33C580.32 121.33 579.44 121.27 578.68 121.15C577.92 121.05 577.23 120.88 576.61 120.64C575.99 120.4 575.35 120.11 574.69 119.77V116.47C575.47 117.09 576.41 117.6 577.51 118C578.63 118.4 579.83 118.6 581.11 118.6C582.35 118.6 583.27 118.35 583.87 117.85C584.49 117.33 584.8 116.62 584.8 115.72C584.8 115.02 584.57 114.46 584.11 114.04C583.67 113.6 583.08 113.23 582.34 112.93C581.6 112.63 580.81 112.33 579.97 112.03C579.33 111.79 578.7 111.54 578.08 111.28C577.46 111 576.9 110.66 576.4 110.26C575.9 109.84 575.5 109.31 575.2 108.67C574.9 108.03 574.75 107.24 574.75 106.3C574.75 105.64 574.88 104.97 575.14 104.29C575.4 103.61 575.79 103 576.31 102.46C576.85 101.9 577.55 101.46 578.41 101.14C579.29 100.8 580.34 100.63 581.56 100.63C582.36 100.63 583.05 100.68 583.63 100.78C584.23 100.88 584.79 101.04 585.31 101.26C585.85 101.46 586.43 101.71 587.05 102.01V105.25C586.55 104.93 586.04 104.63 585.52 104.35C585.02 104.07 584.47 103.84 583.87 103.66C583.27 103.48 582.6 103.38 581.86 103.36C581.02 103.34 580.33 103.44 579.79 103.66C579.25 103.88 578.84 104.19 578.56 104.59C578.28 104.99 578.14 105.45 578.14 105.97C578.14 106.67 578.31 107.23 578.65 107.65C579.01 108.05 579.51 108.39 580.15 108.67C580.79 108.93 581.53 109.19 582.37 109.45C583.11 109.69 583.83 109.96 584.53 110.26C585.23 110.56 585.85 110.93 586.39 111.37C586.93 111.79 587.36 112.32 587.68 112.96C588.02 113.6 588.19 114.39 588.19 115.33C588.19 116.37 587.95 117.35 587.47 118.27C587.01 119.17 586.27 119.91 585.25 120.49C584.25 121.05 582.94 121.33 581.32 121.33Z" fill="#688072"/>
</g>
<defs>
<clipPath id="clip0_2_6">
<rect width="610" height="145" fill="none"/>
</clipPath>
</defs>
</svg>
