<svg width="90" height="97" viewBox="0 0 90 97" fill="none" xmlns="http://www.w3.org/2000/svg">
<path d="M45 48.5C59.2031 48.5 70.7143 37.6443 70.7143 24.25C70.7143 10.8557 59.2031 0 45 0C30.7969 0 19.2857 10.8557 19.2857 24.25C19.2857 37.6443 30.7969 48.5 45 48.5ZM64.2455 54.6762L54.6429 90.9375L48.2143 65.1719L54.6429 54.5625H35.3571L41.7857 65.1719L35.3571 90.9375L25.7545 54.6762C11.4308 55.3203 0 66.3654 0 80.025V87.9062C0 92.9268 4.3192 97 9.64286 97H80.3571C85.6808 97 90 92.9268 90 87.9062V80.025C90 66.3654 78.5692 55.3203 64.2455 54.6762Z" fill="#ffffff"/>
</svg>
